<svg width="177" height="300" viewBox="0 0 177 300" fill="none" xmlns="http://www.w3.org/2000/svg">
<g clip-path="url(#clip0_0_14)">
<path fill-rule="evenodd" clip-rule="evenodd" d="M88.3988 32.5916C57.6037 32.5916 32.6453 57.5181 32.6453 88.2739H0C0 39.5295 39.5801 0 88.3988 0C137.218 0 176.786 39.5295 176.786 88.2739H144.152C144.152 57.5181 119.194 32.5916 88.3988 32.5916Z" fill="#585CE5"/>
<path d="M105.79 70.2496C105.79 70.2496 104.787 82.2897 103.785 86.8077C102.782 91.3257 97.6613 97.3457 90.7264 97.9418C83.7915 98.5378 76.8686 93.4238 75.3527 88.6078C74.5888 86.164 71.8315 70.7503 71.8315 70.7503L73.6339 57.7089L80.5688 54.0969L86.501 57.101L99.6546 53.1909L102.663 55.3963L105.778 70.2496H105.79Z" fill="#F5DEDE"/>
<path d="M82.1799 93.7217C82.1799 93.7217 81.7741 101.542 80.8789 102.853C79.9837 104.164 73.2397 106.06 73.2397 106.06C73.2397 106.06 81.5831 115.394 89.4132 114.583C97.2433 113.773 105.587 106.155 105.587 106.155L106.088 103.842C106.088 103.842 100.764 103.842 99.7618 102.042C98.7592 100.242 98.1504 92.4104 98.1504 92.4104L82.1799 93.7098V93.7217Z" fill="#F5DEDE"/>
<path d="M102.698 89.6329C101.421 88.4885 99.8335 87.2844 97.2314 85.9851C93.0418 83.887 86.7157 84.4711 83.0274 85.9851C80.6163 86.9745 77.9307 88.6911 76.3193 90.6581C78.8379 94.7588 84.7701 98.4543 90.7262 97.9298C96.2765 97.4529 100.657 93.4952 102.698 89.6209V89.6329Z" fill="#A1A3F6"/>
<path d="M127.883 183.808C127.883 183.808 147.769 192.832 157.616 200.258C167.464 207.685 175.7 212.704 175.7 223.134C175.7 233.565 165.649 239.383 156.005 240.992C146.361 242.601 130.688 239.585 130.688 239.585L133.505 217.913C133.505 217.913 124.267 216.709 116.831 214.909C109.394 213.109 92.9226 210.498 86.0952 210.498C79.2677 210.498 73.0848 211.893 65.7918 214.802C56.04 218.7 52.1369 223.468 52.1369 223.468C52.1369 223.468 59.9909 226.15 61.3874 226.353L62.7959 226.556L56.1713 249.432C56.1713 249.432 37.8852 248.633 25.03 244.02C12.1748 239.406 9.89504 228.821 10.3009 222.395C10.7067 215.97 15.3857 209.104 25.2329 202.881C35.0802 196.658 53.3544 184.618 53.3544 184.618L127.895 183.82L127.883 183.808Z" fill="#58C6CD"/>
<path d="M109.586 27.6564C99.5115 24.4497 93.2808 29.671 90.4519 33.4857C87.6231 37.3004 86.2266 41.9376 86.2266 41.9376L119.648 51.7961C119.648 51.7961 121.665 45.3589 120.447 39.5296C119.552 35.2142 118.43 30.4816 109.574 27.6683L109.586 27.6564Z" fill="#F2D382"/>
<path d="M66.6152 35.7268L119.122 51.5815" stroke="white" stroke-linecap="round" stroke-linejoin="round"/>
<path d="M71.9151 71.9065C72.2254 72.4668 72.7983 71.5608 73.5384 69.9396C75.2214 66.2679 73.8368 59.9022 77.155 57.3035C79.6138 55.3723 83.7795 62.8228 88.2078 63.2281C92.6361 63.6334 94.1401 61.2254 96.5512 58.8174C98.9623 56.4094 100.872 55.0027 102.078 58.0187C103.283 61.0347 103.689 67.0428 103.987 68.2468C104.381 69.8084 104.906 70.774 105.336 71.3581C105.623 71.7396 106.231 71.6085 106.303 71.1197C106.673 68.4018 107.544 61.0108 106.398 57.6015C104.99 53.3934 100.168 47.2661 89.3179 47.2661C78.468 47.2661 74.1949 52.5828 71.9867 56.9935C69.7785 61.4042 71.1034 70.4402 71.9151 71.8946V71.9065Z" fill="#585CE5"/>
<path d="M103.08 45.9668L104.214 42.5693" stroke="white" stroke-linecap="round" stroke-linejoin="round"/>
<path d="M105.396 39.0529L107.174 33.76" stroke="white" stroke-linecap="round" stroke-linejoin="round"/>
<path d="M107.759 31.9956L108.905 28.6101" stroke="white" stroke-linecap="round" stroke-linejoin="round"/>
<path d="M81.3325 72.7769L81.6309 76.3531" stroke="#0F2851" stroke-linecap="round" stroke-linejoin="round"/>
<path d="M96.7901 72.6694L96.5991 76.1622" stroke="#0F2851" stroke-linecap="round" stroke-linejoin="round"/>
<path d="M89.3897 71.7039C89.3897 71.7039 87.48 79.4286 86.9787 81.4313C86.4773 83.434 88.1842 83.5413 89.2943 83.1359C90.4043 82.7306 92.0038 81.4313 92.0038 81.4313" stroke="#0F2851" stroke-linecap="round" stroke-linejoin="round"/>
<path d="M86.501 89.4062C86.501 89.4062 87.802 90.6579 89.8192 90.7056C91.3232 90.7414 92.5287 89.597 92.5287 89.597" stroke="#0F2851" stroke-linecap="round" stroke-linejoin="round"/>
<path d="M77.2026 70.3688C77.2026 70.3688 77.7636 69.3078 79.1124 68.3661C80.1628 67.627 81.2251 67.5674 81.2251 67.5674" stroke="#0F2851" stroke-linecap="round" stroke-linejoin="round"/>
<path d="M95.9424 67.1382C95.9424 67.1382 97.506 67.7223 98.4132 68.6044C99.3203 69.4866 99.7619 70.2376 99.7619 70.2376" stroke="#0F2851" stroke-linecap="round" stroke-linejoin="round"/>
<path d="M73.2401 73.349C73.2401 73.349 70.0293 71.4417 68.215 72.6457C66.4007 73.8497 66.4126 75.2564 67.2123 77.9624C68.0121 80.6684 70.0293 84.6857 71.939 83.9824C73.8488 83.2791 74.6485 81.7771 74.6485 81.7771L73.2401 73.349Z" fill="#F5DEDE"/>
<path d="M69.0264 75.7571L72.9414 78.5108" stroke="#EEC1C1" stroke-linecap="round" stroke-linejoin="round"/>
<path d="M104.584 73.5516C104.584 73.5516 107.401 72.0496 108.607 72.145C109.812 72.2403 111.006 72.8602 110.922 74.8033C110.827 77.0087 109.621 81.5744 107.354 82.683C106.1 83.291 103.892 82.1823 103.892 82.1823L104.596 73.5516H104.584Z" fill="#F5DEDE"/>
<path d="M107.998 75.0537L105.289 78.0697" stroke="#EEC1C1" stroke-linecap="round" stroke-linejoin="round"/>
<path d="M79.8763 108.17C79.8763 108.17 82.6932 110.172 87.9093 110.375C93.1253 110.578 98.5563 108.575 98.5563 108.575L120.65 136.661C120.65 136.661 122.858 154.923 124.863 165.759C126.869 176.595 127.871 183.819 127.871 183.819C127.871 183.819 114.813 197.063 88.697 196.062C62.5808 195.061 53.3423 185.226 53.3423 184.63C53.3423 184.034 58.1645 140.69 58.1645 140.69L79.8643 108.182L79.8763 108.17Z" fill="white"/>
<path d="M151.207 217.293C151.207 217.293 147.59 218.295 143.186 218.593C139.175 218.867 133.1 218.271 133.1 218.271" stroke="#99D7DB" stroke-linecap="round" stroke-linejoin="round"/>
<path d="M47.3267 220.333C47.3267 220.333 49.6661 222.288 52.1488 223.337C54.6316 224.386 56.04 224.541 56.04 224.541" stroke="#99D7DB" stroke-linecap="round" stroke-linejoin="round"/>
<path d="M125.078 216.721C125.078 216.721 118.036 215.326 112.617 213.622C107.735 212.084 100.765 208.901 100.765 208.901L96.1453 212.978L94.4146 220.667L94.1997 228.141L101.457 222.622C101.457 222.622 108.034 226.103 110.994 227.712C117.177 231.074 122.918 233.446 122.918 233.446L125.078 216.733V216.721Z" fill="#F5DEDE"/>
<path d="M101.719 208.555L91.2633 204.204L80.4253 229.429L93.4834 229.631L96.5749 221.632C96.5749 221.632 96.0377 219.355 97.5536 214.599C98.8666 210.474 101.719 208.567 101.719 208.567V208.555Z" fill="#EF8B8B"/>
<path d="M22.8101 185.214C22.8101 185.214 24.5289 195.132 24.7318 196.944C24.9347 198.756 24.4214 201.665 25.2212 202.869C26.0209 204.073 29.6375 205.682 33.66 208.686C37.6825 211.69 39.6161 213.335 39.6161 213.335C39.6161 213.335 40.3681 217.663 42.5404 220.476C43.2686 221.418 44.6651 222.026 44.9157 221.918C45.9184 221.513 43.5073 211.881 43.5073 211.881C43.8773 211.285 46.0377 214.384 47.4939 217.389C48.0072 218.438 49.8453 219.2 50.1318 219.308C51.1344 219.713 50.9077 215.35 50.9077 215.35C50.9077 215.35 52.6742 215.755 52.2923 211.452C52.149 209.843 51.3493 206.409 50.7525 205.205C50.1557 204.001 48.7353 202.249 48.7353 202.249C48.7353 202.249 52.3519 202.654 53.5575 201.45C54.763 200.246 54.3572 200.449 51.5522 198.84C48.7472 197.23 44.9277 196.026 42.5166 195.43C40.1055 194.834 36.2859 194.429 36.2859 194.429L36.083 182.592L22.822 185.202L22.8101 185.214Z" fill="#F5DEDE"/>
<path d="M36.4768 197.052L36.0352 192.724" stroke="#EEC1C1" stroke-linecap="round" stroke-linejoin="round"/>
<path d="M43.1968 204.419C43.1968 204.419 47.3267 206.696 47.7325 207.697C48.1383 208.698 50.8359 215.302 50.8359 215.302" stroke="#EEC1C1" stroke-linecap="round" stroke-linejoin="round"/>
<path d="M41.0962 207.685C42.0988 208.09 43.5073 211.893 43.5073 211.893" stroke="#EEC1C1" stroke-linecap="round" stroke-linejoin="round"/>
<path d="M44.1157 200.664L48.735 202.273" stroke="#EEC1C1" stroke-linecap="round" stroke-linejoin="round"/>
<path d="M118.251 154.113C118.251 154.113 113.834 153.838 110.612 152.706C107.389 151.574 105.193 150.095 105.193 150.095C105.193 150.095 105.575 145.553 103.844 140.594C102.674 137.233 101.481 133.203 101.481 133.203C101.481 133.203 99.2843 133.752 99.1172 135.147C98.795 137.912 99.356 143.587 99.356 143.587C99.356 143.587 92.5046 137.948 90.9052 134.741C89.3058 131.535 88.4106 130.438 87.4079 130.033C86.4053 129.627 85.6891 130.819 85.6891 130.819C85.6891 130.819 86.644 134.908 87.6586 136.112C88.6731 137.316 90.4994 141.393 90.4994 141.393C90.4994 141.393 86.2979 137.65 84.4836 136.041C82.6693 134.431 80.4611 132.429 78.8617 132.429C77.2622 132.429 78.2291 135.707 78.2291 135.707C78.2291 135.707 77.7039 137.268 78.3126 138.473C78.9213 139.677 79.2675 140.773 79.7807 141.393C80.5805 142.394 81.8099 143.908 81.8099 143.908C81.8099 143.908 79.0407 141.477 78.2649 143.467C77.871 144.469 80.2701 146.281 82.6812 148.486C85.0923 150.691 91.323 156.509 92.1227 156.914C92.9224 157.319 94.3309 158.523 98.3533 159.918C102.376 161.313 115.231 166.141 115.231 166.141L118.239 154.101L118.251 154.113Z" fill="#F5DEDE"/>
<path d="M92.7793 299.988C123.182 299.988 147.829 295.873 147.829 290.797C147.829 285.721 123.182 281.606 92.7793 281.606C62.3764 281.606 37.73 285.721 37.73 290.797C37.73 295.873 62.3764 299.988 92.7793 299.988Z" fill="#A1A3F6"/>
<path d="M65.8039 244.413C65.8039 244.413 70.9006 242.661 74.8396 241.409C79.1127 240.038 84.4839 238.202 84.4839 238.202L93.1257 244.222L90.5117 225.96C90.5117 225.96 82.4787 227.962 77.2507 228.368C72.0226 228.773 68.6089 228.368 68.6089 228.368L65.792 244.425L65.8039 244.413Z" fill="#F5DEDE"/>
<path d="M91.5263 244.413C91.5263 244.413 99.1057 251.005 102.579 254.844C110.135 263.2 114.026 260.458 114.026 260.458L97.6615 220.655L88.3394 224.875C88.3394 224.875 90.5237 230.168 91.1205 235.174C91.7173 240.181 91.5263 244.401 91.5263 244.401V244.413Z" fill="#EF8B8B"/>
<path d="M114.026 260.458L97.6615 220.655L88.3394 224.875" stroke="#EEC1C1" stroke-linecap="round" stroke-linejoin="round"/>
<path d="M95.5248 246.166C95.5248 246.166 81.5595 251.756 76.7373 253.556C71.9151 255.356 71.4138 260.411 77.8474 258.003C84.281 255.595 95.5248 246.166 95.5248 246.166V246.166Z" stroke="white" stroke-linecap="round" stroke-linejoin="round"/>
<path d="M76.0332 248.979L95.5249 246.166L100.144 259.612" stroke="white" stroke-linecap="round" stroke-linejoin="round"/>
<path d="M95.632 246.273C95.632 246.273 92.2183 259.827 90.6188 263.844C89.0194 267.861 84.1733 267.778 84.985 264.166C85.7966 260.554 95.6439 246.273 95.6439 246.273H95.632Z" stroke="white" stroke-linecap="round" stroke-linejoin="round"/>
<path d="M71.2347 225.542L68.4178 253.843L55.1567 252.031L62.4258 224.219L71.2347 225.542Z" fill="#99D7DB"/>
<path d="M124.542 215.565L116.091 240.241L131.584 243.281L133.864 217.079L124.542 215.565Z" fill="#99D7DB"/>
<path d="M78.2295 135.719C78.2295 135.719 81.0703 138.961 82.3713 140.427C83.6724 141.894 85.1405 143.026 85.1405 143.026" stroke="#EEC1C1" stroke-linecap="round" stroke-linejoin="round"/>
<path d="M81.8101 143.92L84.4957 146.924" stroke="#EEC1C1" stroke-linecap="round" stroke-linejoin="round"/>
<path d="M107.198 25.1411L113.274 27.3107" stroke="#F2D382" stroke-linecap="round" stroke-linejoin="round"/>
<path d="M24.1111 192.832L36.1547 187.265L36.1069 184.63L22.834 185.333C22.9533 186.037 23.5979 189.744 24.0992 192.832H24.1111Z" fill="#EEC1C1"/>
<path d="M74.6485 100.135C74.6485 100.135 74.8514 102.746 76.0569 104.748C77.2625 106.751 79.8765 108.158 79.8765 108.158L58.1767 140.869C58.1767 140.869 57.5798 139.259 52.9486 143.682C48.3174 148.104 41.6929 156.926 39.4847 165.95C37.8375 172.673 37.8733 185.619 37.8733 185.619L18.3817 188.027C18.3817 188.027 16.1735 175.189 17.7849 163.745C19.6708 150.346 27.6441 130.176 44.5098 116.395C62.1872 101.947 74.6485 100.147 74.6485 100.147V100.135Z" fill="#0F2851"/>
<path d="M58.1768 140.869L60.2656 127.124" stroke="#585CE5" stroke-linecap="round" stroke-linejoin="round"/>
<path d="M111.161 164.639C113.524 165.521 115.231 166.153 115.231 166.153L118.239 154.113C118.239 154.113 116.198 153.982 113.882 153.552L111.149 164.639H111.161Z" fill="#EEC1C1"/>
<path d="M105.587 99.5391C105.587 99.5391 104.381 103.556 102.173 105.762C99.9651 107.967 98.5566 108.575 98.5566 108.575L120.65 136.661C120.65 136.661 120.889 134.551 122.059 134.658C123.67 134.801 130.259 141.214 133.673 144.779C135.726 146.936 137.409 150.262 136.525 151.502C134.926 153.755 129.292 154.506 123.873 153.91C118.454 153.314 116.843 152.503 116.843 152.503L112.629 170.766C112.629 170.766 131.118 174.378 141.562 173.174C152.007 171.97 159.24 164.543 157.831 153.314C156.423 142.073 148.987 129.234 134.329 116.8C119.66 104.355 105.599 99.5391 105.599 99.5391H105.587Z" fill="#0F2851"/>
<path d="M119.123 126.79L120.662 136.66" stroke="#585CE5" stroke-linecap="round" stroke-linejoin="round"/>
<path opacity="0.52" d="M78.1936 86.271C79.8746 86.271 81.2373 84.9101 81.2373 83.2312C81.2373 81.5524 79.8746 80.1914 78.1936 80.1914C76.5126 80.1914 75.1499 81.5524 75.1499 83.2312C75.1499 84.9101 76.5126 86.271 78.1936 86.271Z" fill="#EF8B8B"/>
<path opacity="0.52" d="M100.634 85.9493C102.315 85.9493 103.677 84.5883 103.677 82.9094C103.677 81.2306 102.315 79.8696 100.634 79.8696C98.9526 79.8696 97.5898 81.2306 97.5898 82.9094C97.5898 84.5883 98.9526 85.9493 100.634 85.9493Z" fill="#EF8B8B"/>
</g>
<defs>
<clipPath id="clip0_0_14">
<rect width="176.786" height="300" fill="white"/>
</clipPath>
</defs>
</svg>
