<svg width="18" height="14" viewBox="0 0 18 14" fill="none" xmlns="http://www.w3.org/2000/svg">
<path d="M13.1016 1.48286C13.3134 1.33119 13.5649 1.21088 13.8416 1.1288C14.1184 1.04672 14.415 1.00447 14.7146 1.00447C15.0141 1.00447 15.3107 1.04672 15.5875 1.1288C15.8642 1.21088 16.1157 1.33119 16.3275 1.48286C16.5393 1.63453 16.7074 1.81459 16.822 2.01276C16.9366 2.21092 16.9956 2.42332 16.9956 2.63781C16.9956 2.8523 16.9366 3.0647 16.822 3.26286C16.7074 3.46103 16.5393 3.64109 16.3275 3.79276L5.44009 11.5887L1.00447 12.4549L2.21418 9.27876L13.1016 1.48286Z" stroke="white" stroke-width="2" stroke-linecap="round" stroke-linejoin="round"/>
</svg>
