<svg width="34" height="34" viewBox="0 0 34 34" fill="none" xmlns="http://www.w3.org/2000/svg">
<path d="M15.5833 5.66683H9.63325C7.25303 5.66683 6.06292 5.66683 5.15379 6.13005C4.3541 6.53751 3.70394 7.18768 3.29647 7.98737C2.83325 8.89649 2.83325 10.0866 2.83325 12.4668V24.3668C2.83325 26.7471 2.83325 27.9372 3.29647 28.8463C3.70394 29.646 4.3541 30.2961 5.15379 30.7036C6.06292 31.1668 7.25303 31.1668 9.63325 31.1668H21.5333C23.9135 31.1668 25.1036 31.1668 26.0127 30.7036C26.8124 30.2961 27.4626 29.646 27.87 28.8463C28.3333 27.9372 28.3333 26.7471 28.3333 24.3668V18.4168M11.3332 22.6668H13.7055C14.3985 22.6668 14.745 22.6668 15.0711 22.5885C15.3602 22.5191 15.6366 22.4047 15.8901 22.2493C16.176 22.0741 16.421 21.8291 16.911 21.339L30.4583 7.79183C31.6319 6.61822 31.6319 4.71543 30.4583 3.54183C29.2846 2.36822 27.3819 2.36822 26.2083 3.54182L12.661 17.089C12.171 17.5791 11.926 17.8241 11.7507 18.11C11.5954 18.3635 11.4809 18.6399 11.4115 18.929C11.3332 19.2551 11.3332 19.6016 11.3332 20.2946V22.6668Z" stroke="black" stroke-width="2" stroke-linecap="round" stroke-linejoin="round"/>
</svg>
