<svg width="19" height="19" viewBox="0 0 19 19" fill="none" xmlns="http://www.w3.org/2000/svg">
<path fill-rule="evenodd" clip-rule="evenodd" d="M9.5 8.32877C11.0093 8.32877 12.2329 7.10522 12.2329 5.59589C12.2329 4.08656 11.0093 2.86301 9.5 2.86301C7.99067 2.86301 6.76712 4.08656 6.76712 5.59589C6.76712 7.10522 7.99067 8.32877 9.5 8.32877Z" stroke="#898D9E" stroke-linecap="round" stroke-linejoin="round"/>
<path fill-rule="evenodd" clip-rule="evenodd" d="M9.50014 0.520548C12.4564 0.520979 14.8527 2.91761 14.8527 5.87386C14.8527 8.38421 10.9939 14.6074 9.82887 16.4282C9.75709 16.5403 9.6332 16.608 9.50014 16.608C9.36709 16.608 9.2432 16.5403 9.17142 16.4282C8.00643 14.6074 4.14761 8.38577 4.14761 5.87386C4.1474 4.45415 4.71124 3.09251 5.71505 2.08854C6.71887 1.08458 8.08043 0.520548 9.50014 0.520548V0.520548Z" stroke="#898D9E" stroke-linecap="round" stroke-linejoin="round"/>
<path d="M13.4041 15.5127C16.4087 15.7657 18.4795 16.3006 18.4795 16.9182C18.4795 17.781 14.4598 18.4799 9.5 18.4799C4.54022 18.4799 0.520548 17.781 0.520548 16.9182C0.520548 16.3014 2.57801 15.7681 5.5631 15.5127" stroke="#898D9E" stroke-linecap="round" stroke-linejoin="round"/>
</svg>
