<svg width="32" height="32" viewBox="0 0 32 32" fill="none" xmlns="http://www.w3.org/2000/svg">
<path fill-rule="evenodd" clip-rule="evenodd" d="M9 17C13.4183 17 17 13.4183 17 9C17 4.58172 13.4183 1 9 1C4.58172 1 1 4.58172 1 9C1 13.4183 4.58172 17 9 17Z" stroke="#D0D1FF" stroke-width="1.5" stroke-linecap="round" stroke-linejoin="round"/>
<path d="M1.25195 7H16.748" stroke="#D0D1FF" stroke-width="1.5" stroke-linecap="round" stroke-linejoin="round"/>
<path d="M1.25195 11H16.748" stroke="#D0D1FF" stroke-width="1.5" stroke-linecap="round" stroke-linejoin="round"/>
<path fill-rule="evenodd" clip-rule="evenodd" d="M21.0507 29.5361C19.0806 31.3718 16.0106 31.3177 14.1066 29.4136C12.2025 27.5095 12.1483 24.4395 13.984 22.4694L22.4694 13.9841C23.7158 12.6464 25.5931 12.0958 27.3646 12.5482C29.1362 13.0006 30.5195 14.384 30.9719 16.1555C31.4244 17.9271 30.8737 19.8043 29.536 21.0508L21.0507 29.5361Z" stroke="#D0D1FF" stroke-width="1.5" stroke-linecap="round" stroke-linejoin="round"/>
<path d="M18.2212 18.2212L25.2932 25.2932" stroke="#D0D1FF" stroke-width="1.5" stroke-linecap="round" stroke-linejoin="round"/>
</svg>
