<svg width="34" height="34" viewBox="0 0 34 34" fill="none" xmlns="http://www.w3.org/2000/svg">
<path d="M2.83325 10.911C2.83325 8.79713 4.54689 7.0835 6.66077 7.0835C7.75909 7.0835 8.73419 6.38069 9.08151 5.33873L9.20825 4.9585C9.26802 4.77919 9.29791 4.68953 9.32988 4.61C9.73815 3.59442 10.6949 2.90485 11.7875 2.83868C11.873 2.8335 11.9675 2.8335 12.1565 2.8335H21.8433C22.0323 2.8335 22.1268 2.8335 22.2124 2.83868C23.305 2.90485 24.2617 3.59442 24.67 4.61C24.7019 4.68953 24.7318 4.77919 24.7916 4.9585L24.9183 5.33873C25.2656 6.38069 26.2407 7.0835 27.3391 7.0835C29.4529 7.0835 31.1666 8.79713 31.1666 10.911V22.9502C31.1666 25.3304 31.1666 26.5205 30.7034 27.4296C30.2959 28.2293 29.6457 28.8795 28.846 29.2869C27.9369 29.7502 26.7468 29.7502 24.3666 29.7502H9.63325C7.25303 29.7502 6.06292 29.7502 5.15379 29.2869C4.3541 28.8795 3.70394 28.2293 3.29647 27.4296C2.83325 26.5205 2.83325 25.3304 2.83325 22.9502V10.911Z" stroke="black" stroke-width="2" stroke-linecap="round" stroke-linejoin="round"/>
<path d="M16.9999 23.3752C20.5207 23.3752 23.3749 20.521 23.3749 17.0002C23.3749 13.4793 20.5207 10.6252 16.9999 10.6252C13.4791 10.6252 10.6249 13.4793 10.6249 17.0002C10.6249 20.521 13.4791 23.3752 16.9999 23.3752Z" stroke="black" stroke-width="2" stroke-linecap="round" stroke-linejoin="round"/>
</svg>
