<svg width="198" height="4" viewBox="0 0 198 4" fill="none" xmlns="http://www.w3.org/2000/svg">
<path fill-rule="evenodd" clip-rule="evenodd" d="M0 2C0 3.10457 0.880637 4 1.96696 4H56.033C57.1194 4 58 3.10457 58 2C58 0.895431 57.1194 0 56.033 0H1.96696C0.880637 0 0 0.895431 0 2Z" fill="#585CE5"/>
<path fill-rule="evenodd" clip-rule="evenodd" d="M70 2C70 3.10457 70.8806 4 71.967 4H126.033C127.119 4 128 3.10457 128 2C128 0.895431 127.119 0 126.033 0H71.967C70.8806 0 70 0.895431 70 2Z" fill="#585CE5"/>
<path fill-rule="evenodd" clip-rule="evenodd" d="M140 2C140 3.10457 140.881 4 141.967 4H196.033C197.119 4 198 3.10457 198 2C198 0.895431 197.119 0 196.033 0H141.967C140.881 0 140 0.895431 140 2Z" fill="#F0F1F9"/>
</svg>
