<svg width="24" height="24" viewBox="0 0 24 24" fill="none" xmlns="http://www.w3.org/2000/svg">
<path d="M5.24979 2.24991H2.24991C1.42152 2.24991 0.749969 2.92145 0.749969 3.74985V21.7491C0.749969 22.5775 1.42152 23.2491 2.24991 23.2491H21.7491C22.5775 23.2491 23.2491 22.5775 23.2491 21.7491V3.74985C23.2491 2.92145 22.5775 2.24991 21.7491 2.24991H11.2495" stroke="#B0B2C4" stroke-width="1.5" stroke-linecap="round" stroke-linejoin="round"/>
<path fill-rule="evenodd" clip-rule="evenodd" d="M11.2495 11.2495L8.24967 9.00063L5.24979 11.2505V1.50094C5.24952 1.30186 5.32842 1.11085 5.46909 0.969984C5.60977 0.829121 5.80068 0.749969 5.99976 0.749969H10.4996C10.9138 0.749969 11.2495 1.08574 11.2495 1.49994V11.2495Z" stroke="#B0B2C4" stroke-width="1.5" stroke-linecap="round" stroke-linejoin="round"/>
<path d="M5.24979 18.7492H15.7494" stroke="#B0B2C4" stroke-width="1.5" stroke-linecap="round" stroke-linejoin="round"/>
<path d="M5.24979 14.2494H18.7492" stroke="#B0B2C4" stroke-width="1.5" stroke-linecap="round" stroke-linejoin="round"/>
<path d="M18.7492 9.7496H14.2494" stroke="#B0B2C4" stroke-width="1.5" stroke-linecap="round" stroke-linejoin="round"/>
</svg>
