<svg width="25" height="25" viewBox="0 0 25 25" fill="none" xmlns="http://www.w3.org/2000/svg">
<rect x="0.5" y="0.5" width="24" height="24" fill="black" fill-opacity="0.2"/>
<rect x="0.5" y="0.5" width="24" height="24" fill="black" fill-opacity="0.2"/>
<path d="M12.5 21.75V21.75C12.6381 21.75 12.75 21.8619 12.75 22V22C12.75 22.1381 12.6381 22.25 12.5 22.25V22.25C12.3619 22.25 12.25 22.1381 12.25 22V22C12.25 21.8619 12.3619 21.75 12.5 21.75" stroke="#B0B2C4" stroke-width="1.5" stroke-linecap="round" stroke-linejoin="round"/>
<path fill-rule="evenodd" clip-rule="evenodd" d="M6 3C6 1.89543 6.89543 1 8 1H17C18.1046 1 19 1.89543 19 3V22C19 23.1046 18.1046 24 17 24H8C6.89543 24 6 23.1046 6 22V3Z" stroke="#B0B2C4" stroke-width="1.5" stroke-linecap="round" stroke-linejoin="round"/>
<path d="M19 20H6" stroke="#B0B2C4" stroke-width="1.5" stroke-linecap="round" stroke-linejoin="round"/>
<path d="M19 5H6" stroke="#B0B2C4" stroke-width="1.5" stroke-linecap="round" stroke-linejoin="round"/>
<path d="M11 3H14" stroke="#B0B2C4" stroke-width="1.5" stroke-linecap="round" stroke-linejoin="round"/>
<rect x="0.5" y="0.5" width="24" height="24" stroke="black" stroke-miterlimit="0" stroke-linejoin="bevel"/>
</svg>
