<svg width="32" height="32" viewBox="0 0 32 32" fill="none" xmlns="http://www.w3.org/2000/svg">
<path fill-rule="evenodd" clip-rule="evenodd" d="M9 17C13.4183 17 17 13.4183 17 9C17 4.58172 13.4183 1 9 1C4.58172 1 1 4.58172 1 9C1 13.4183 4.58172 17 9 17Z" stroke="#D0D1FF" stroke-width="1.5" stroke-linecap="round" stroke-linejoin="round"/>
<path d="M1.25195 7H16.748" stroke="#D0D1FF" stroke-width="1.5" stroke-linecap="round" stroke-linejoin="round"/>
<path d="M1.25195 11H16.748" stroke="#D0D1FF" stroke-width="1.5" stroke-linecap="round" stroke-linejoin="round"/>
<path fill-rule="evenodd" clip-rule="evenodd" d="M21.0507 29.536C19.0806 31.3717 16.0106 31.3175 14.1066 29.4135C12.2025 27.5094 12.1483 24.4394 13.984 22.4693L22.4694 13.984C23.7158 12.6463 25.5931 12.0957 27.3646 12.5481C29.1362 13.0005 30.5195 14.3838 30.9719 16.1554C31.4244 17.9269 30.8737 19.8042 29.536 21.0506L21.0507 29.536Z" stroke="#D0D1FF" stroke-width="1.5" stroke-linecap="round" stroke-linejoin="round"/>
<path d="M18.2212 18.2213L25.2932 25.2933" stroke="#D0D1FF" stroke-width="1.5" stroke-linecap="round" stroke-linejoin="round"/>
</svg>
