<svg width="19" height="18" viewBox="0 0 19 18" fill="none" xmlns="http://www.w3.org/2000/svg">
<path d="M2.12354 15.7499L16.186 2.24994" stroke="#898D9E" stroke-width="1.2" stroke-linecap="round" stroke-linejoin="round"/>
<path d="M6.75928 14.2882C7.49639 14.5171 8.26446 14.6307 9.03628 14.6249C12.1113 14.6767 15.2298 12.5152 17.1543 10.3972C17.5816 9.92271 17.5816 9.20211 17.1543 8.72766C16.4571 7.96282 15.6847 7.27008 14.8488 6.65991" stroke="#898D9E" stroke-width="1.2" stroke-linecap="round" stroke-linejoin="round"/>
<path d="M10.8461 4.71146C10.2543 4.5642 9.64616 4.49312 9.03637 4.49996C6.01312 4.44971 2.88637 6.56396 0.92062 8.72621C0.493257 9.20066 0.493257 9.92126 0.92062 10.3957C1.51831 11.05 2.17067 11.6522 2.87062 12.1957" stroke="#898D9E" stroke-width="1.2" stroke-linecap="round" stroke-linejoin="round"/>
<path d="M6.22363 9.56244C6.22343 8.81646 6.51969 8.10097 7.04718 7.57348C7.57466 7.04599 8.29015 6.74974 9.03613 6.74994" stroke="#898D9E" stroke-width="1.2" stroke-linecap="round" stroke-linejoin="round"/>
<path d="M11.8486 9.56171V9.56171C11.8488 10.3078 11.5526 11.0233 11.0251 11.5509C10.4977 12.0785 9.78218 12.375 9.03613 12.375" stroke="#898D9E" stroke-width="1.2" stroke-linecap="round" stroke-linejoin="round"/>
</svg>
