<svg width="25" height="25" viewBox="0 0 25 25" fill="none" xmlns="http://www.w3.org/2000/svg">
<rect x="0.5" y="0.5" width="24" height="24" fill="black" fill-opacity="0.2"/>
<rect x="0.5" y="0.5" width="24" height="24" fill="black" fill-opacity="0.2"/>
<path d="M9.5 9.50011C9.50029 7.97454 10.6455 6.69212 12.1613 6.51987C13.6771 6.34762 15.0808 7.34039 15.4234 8.827C15.766 10.3136 14.9383 11.8206 13.5 12.3291C12.9004 12.5411 12.4997 13.1081 12.5 13.7441V14.7501" stroke="#B0B2C4" stroke-width="1.5" stroke-linecap="round" stroke-linejoin="round"/>
<path d="M12.5 17.75C12.2929 17.75 12.125 17.9179 12.125 18.125C12.125 18.3321 12.2929 18.5 12.5 18.5C12.7071 18.5 12.875 18.3321 12.875 18.125C12.875 17.9179 12.7071 17.75 12.5 17.75V17.75" stroke="#B0B2C4" stroke-width="1.5" stroke-linecap="round" stroke-linejoin="round"/>
<path fill-rule="evenodd" clip-rule="evenodd" d="M12.5 23.75C18.7132 23.75 23.75 18.7132 23.75 12.5C23.75 6.2868 18.7132 1.25 12.5 1.25C6.2868 1.25 1.25 6.2868 1.25 12.5C1.25 18.7132 6.2868 23.75 12.5 23.75Z" stroke="#B0B2C4" stroke-width="1.5"/>
<rect x="0.5" y="0.5" width="24" height="24" stroke="black" stroke-miterlimit="0" stroke-linejoin="bevel"/>
</svg>
