<svg width="21" height="22" viewBox="0 0 21 22" fill="none" xmlns="http://www.w3.org/2000/svg">
<path d="M7.55652 19.9774V16.8485C7.55652 16.0498 8.20873 15.4024 9.01328 15.4024H11.9543C12.3407 15.4024 12.7112 15.5547 12.9844 15.8259C13.2576 16.0971 13.4111 16.465 13.4111 16.8485V19.9774C13.4086 20.3094 13.5398 20.6287 13.7754 20.8644C14.0111 21.1 14.3318 21.2326 14.6663 21.2326H16.6728C17.6099 21.235 18.5094 20.8671 19.1729 20.2101C19.8364 19.5532 20.2093 18.6611 20.2093 17.7308V8.81725C20.2093 8.06577 19.8737 7.35295 19.2931 6.87082L12.4674 1.45903C11.28 0.510156 9.57881 0.540793 8.42691 1.53179L1.75694 6.87082C1.14885 7.33874 0.785402 8.05367 0.767442 8.81725V17.7217C0.767442 19.6607 2.35081 21.2326 4.30399 21.2326H6.26467C6.95939 21.2326 7.524 20.6761 7.52903 19.9865L7.55652 19.9774Z" stroke="#585CE5" stroke-width="1.5" stroke-linejoin="round"/>
</svg>
