<svg width="200" height="300" viewBox="0 0 200 300" fill="none" xmlns="http://www.w3.org/2000/svg">
<path d="M96.3835 300C131.315 300 159.633 271.682 159.633 236.75C159.633 201.818 131.315 173.5 96.3835 173.5C61.4515 173.5 33.1335 201.818 33.1335 236.75C33.1335 271.682 61.4515 300 96.3835 300Z" fill="white"/>
<path d="M142.276 185.975H105.828V208.741H142.276V185.975Z" fill="#A1A3F6"/>
<path d="M113.438 195.207C114.837 195.207 115.972 194.072 115.972 192.673C115.972 191.274 114.837 190.139 113.438 190.139C112.039 190.139 110.904 191.274 110.904 192.673C110.904 194.072 112.039 195.207 113.438 195.207Z" fill="#585CE5"/>
<path d="M123.6 195.207C125 195.207 126.134 194.072 126.134 192.673C126.134 191.274 125 190.139 123.6 190.139C122.201 190.139 121.067 191.274 121.067 192.673C121.067 194.072 122.201 195.207 123.6 195.207Z" fill="#585CE5"/>
<path d="M133.735 195.207C135.134 195.207 136.268 194.072 136.268 192.673C136.268 191.274 135.134 190.139 133.735 190.139C132.335 190.139 131.201 191.274 131.201 192.673C131.201 194.072 132.335 195.207 133.735 195.207Z" fill="#585CE5"/>
<path d="M113.438 204.429C114.837 204.429 115.972 203.295 115.972 201.896C115.972 200.496 114.837 199.362 113.438 199.362C112.039 199.362 110.904 200.496 110.904 201.896C110.904 203.295 112.039 204.429 113.438 204.429Z" fill="#585CE5"/>
<path d="M123.6 204.429C125 204.429 126.134 203.295 126.134 201.896C126.134 200.496 125 199.362 123.6 199.362C122.201 199.362 121.067 200.496 121.067 201.896C121.067 203.295 122.201 204.429 123.6 204.429Z" fill="#585CE5"/>
<path d="M133.735 204.429C135.134 204.429 136.268 203.295 136.268 201.896C136.268 200.496 135.134 199.362 133.735 199.362C132.335 199.362 131.201 200.496 131.201 201.896C131.201 203.295 132.335 204.429 133.735 204.429Z" fill="#585CE5"/>
<path d="M0.500011 168.368H198.8" stroke="#0F2851" stroke-linecap="round" stroke-linejoin="round"/>
<path d="M145.74 131.303C145.74 131.303 155.893 139.604 158.196 148.836C160.5 158.068 151.968 173.979 151.968 173.979C151.968 173.979 146.717 174.412 142.967 176.282C140.166 177.692 132.122 178.125 132.353 179.516C132.583 180.908 134.656 181.589 136.969 181.82C139.281 182.05 143.427 181.589 143.427 181.589C143.427 181.589 133.182 193.06 132.021 194.903C130.86 196.745 131.957 197.934 134.03 197.243C135.513 196.745 138.784 193.244 140.055 192.056C142.064 190.176 142.101 191.098 142.101 191.098C142.101 191.098 135.172 198.763 134.776 200.256C134.527 201.223 135.541 202.946 137.457 201.85C138.093 201.481 138.811 200.965 138.811 200.965C138.811 200.965 139.502 203.038 141.815 202.117C144.128 201.195 151.277 193.355 151.277 193.355C151.277 193.355 152.088 193.456 151.738 194.534C150.807 197.372 148.052 203.324 148.052 204.66C148.052 206.502 149.665 206.502 152.208 202.587C154.751 198.671 157.284 191.282 159.818 186.666C162.352 182.05 163.513 176.973 163.513 176.973C163.513 176.973 177.351 161.283 177.812 151.369C178.272 141.447 170.892 132.454 166.507 126.226C162.6 120.68 159.818 117.694 159.818 117.694L145.749 131.303H145.74Z" fill="#F5DEDE"/>
<path d="M160.214 118.146L159.716 117.787L149.554 127.617L146.679 132.132C147.702 133.044 149.425 134.684 151.249 136.794L165.834 125.305C163.125 121.527 161.043 119.086 160.205 118.146H160.214Z" fill="#EEC1C1"/>
<path d="M53.9192 134.537C53.9192 134.537 47.2303 139.613 44.9177 150.227C43.0014 159.026 58.5259 177.683 58.5259 177.683C58.5259 177.683 69.1398 179.065 71.9038 179.756C74.6678 180.447 77.3673 179.756 77.5055 180.567C77.5884 181.064 77.4226 182.658 75.3312 183.248C70.6692 184.556 67.0575 185.524 67.0575 185.524C67.0575 185.524 76.5197 193.134 78.5927 194.286C80.6657 195.437 80.9237 197.906 79.9747 197.98C76.2433 198.266 69.1305 193.364 69.1305 193.364C69.1305 193.364 73.7465 200.053 75.1285 202.126C76.5105 204.199 76.9988 205.12 75.9945 206.042C75.5523 206.447 74.5112 205.968 73.0278 205.71C71.6366 205.471 71.351 206.254 69.8031 206.042C69.2687 205.968 67.4629 205.084 65.0766 202.531C61.6493 198.865 58.9958 196.57 59.2169 197.289C59.2169 197.289 62.5245 203.803 62.9852 205.424C63.4459 207.046 62.589 209.045 61.4374 207.433C60.2857 205.821 53.91 197.529 51.8278 194.295C49.7456 191.061 48.8242 187.145 46.0602 183.911C43.2962 180.677 30.8765 170.321 27.6058 160.38C21.8382 142.847 27.8914 135.237 31.9913 128.548C36.3769 121.398 39.6016 119.316 39.6016 119.316L53.9008 134.546L53.9192 134.537Z" fill="#F5DEDE"/>
<path d="M50.446 138.203C52.3348 135.744 53.9287 134.537 53.9287 134.537L39.6295 119.307C39.6295 119.307 37.0682 120.956 33.4197 126.355L50.446 138.203Z" fill="#EEC1C1"/>
<path d="M89.446 79.634L88.064 87.7049L79.302 89.5476C79.302 89.5476 83.6876 102.695 96.1441 102.004C108.601 101.313 118.293 91.16 118.293 91.16L109.992 87.9261L108.84 79.8551L89.4644 79.6248L89.446 79.634Z" fill="#F5DEDE"/>
<path d="M109.559 84.9594L108.831 79.8551L89.4552 79.6248L88.5522 84.8764C91.4176 86.6085 94.7805 87.6128 98.4474 87.5852C102.483 87.5575 106.279 86.673 109.559 84.9594Z" fill="#EEC1C1"/>
<path d="M33.3918 118.846L56.4622 140.995L64.7635 132.924L59.4565 168.221H138.351L132.583 132.694L142.045 141.926L163.964 119.546C163.964 119.546 152.89 104.317 141.124 96.2456C129.359 88.1747 115.52 86.3228 115.52 86.3228C115.52 86.3228 111.595 97.3973 97.296 97.3973C82.9968 97.3973 82.0662 86.0925 82.0662 86.0925C82.0662 86.0925 72.1434 86.3228 56.4622 97.3973C40.781 108.472 33.3918 118.855 33.3918 118.855V118.846Z" fill="#58C6CD"/>
<path d="M66.8454 118.616L64.7631 132.924" stroke="#C9EBED" stroke-linecap="round" stroke-linejoin="round"/>
<path d="M124.051 122.541H103.985V142.608H124.051V122.541Z" fill="#C9EBED"/>
<path d="M76.759 42.9554C76.759 42.9554 77.837 59.5763 78.832 66.947C80.1403 76.6395 88.0454 84.7842 98.4381 84.7105C108.831 84.6368 118.044 78.7125 120.126 66.947C122.209 55.1815 122.43 35.5754 122.43 35.5754L108.131 24.7313L91.9795 25.6526L83.4479 31.1898L76.759 42.9554Z" fill="#F5DEDE"/>
<path d="M99.249 51.5976C99.249 51.5976 95.7847 67.1406 95.4438 68.4397C94.8634 70.6324 98.4474 71.0931 100.29 70.1718C102.133 69.2504 102.593 68.67 102.593 68.67" stroke="#0F2851" stroke-linecap="round" stroke-linejoin="round"/>
<path d="M87.7231 56.3333V60.4793" stroke="#0F2851" stroke-linecap="round" stroke-linejoin="round"/>
<path d="M84.2587 45.9497L89.2155 44.3374" stroke="#0F2851" stroke-linecap="round" stroke-linejoin="round"/>
<path d="M110.591 44.3467L115.373 46.4013" stroke="#0F2851" stroke-linecap="round" stroke-linejoin="round"/>
<path d="M111.595 56.5637V60.719" stroke="#0F2851" stroke-linecap="round" stroke-linejoin="round"/>
<path d="M94.5226 75.709C94.5226 75.709 97.0563 76.8607 99.1385 76.6304C101.221 76.4 103.063 75.4787 103.063 75.4787" stroke="#0F2851" stroke-linecap="round" stroke-linejoin="round"/>
<path d="M78.3811 44.1071C78.3811 44.1071 81.3847 46.8711 79.5328 49.8747C77.6809 52.8783 75.8659 52.9243 74.2259 52.178C71.9225 51.1369 71.0841 49.0639 70.992 46.5302C70.8722 43.066 74.2259 41.5734 74.2259 41.5734C74.2259 41.5734 69.1493 36.4968 71.9225 31.4203C74.6958 26.3437 79.9935 27.7257 79.9935 27.7257C79.9935 27.7257 80.8319 20.0417 87.8341 16.08C93.9518 12.6157 98.6782 14.5782 98.6782 14.5782C98.6782 14.5782 101.442 4.65534 115.06 0.969986C128.677 -2.71537 128.438 5.12523 128.438 7.42858C128.438 9.73193 126.825 12.7355 126.825 12.7355C126.825 12.7355 133.284 11.1231 135.827 14.8085C138.36 18.5031 137.098 22.7689 135.136 25.6527C131.911 30.3884 127.756 32.1113 127.756 32.1113C127.756 32.1113 130.87 34.0737 130.409 38.6896C129.949 43.3055 128.677 44.8073 127.295 46.1893C126.567 46.9172 127.765 49.0547 125.683 52.1873C124.301 54.2603 121.15 54.9421 120.836 50.3446C120.606 46.8803 122.679 45.268 122.679 45.268C122.679 45.268 120.763 43.3516 119.915 41.5734C118.644 38.92 118.763 36.0362 118.763 36.0362C118.763 36.0362 117.151 36.9575 114.839 36.2665C112.526 35.5755 111.374 31.1899 111.374 31.1899C111.374 31.1899 106.989 39.2609 101.451 39.2609C95.9142 39.2609 94.7626 33.0326 94.7626 33.0326C94.7626 33.0326 92.2289 37.1878 89.686 37.1878C87.1431 37.1878 85.9914 32.1113 85.9914 32.1113C85.9914 32.1113 85.1438 36.46 83.2274 39.4912C80.4634 43.8768 78.3811 44.1071 78.3811 44.1071Z" fill="#0F2851"/>
<path d="M130.971 122.08L132.592 132.694" stroke="#C9EBED" stroke-linecap="round" stroke-linejoin="round"/>
<path d="M57.0336 229.352C58.499 229.352 59.687 228.164 59.687 226.698C59.687 225.233 58.499 224.045 57.0336 224.045C55.5681 224.045 54.3801 225.233 54.3801 226.698C54.3801 228.164 55.5681 229.352 57.0336 229.352Z" fill="#0F2851"/>
<path d="M148.624 253.343C150.725 253.343 152.429 251.64 152.429 249.538C152.429 247.437 150.725 245.733 148.624 245.733C146.522 245.733 144.819 247.437 144.819 249.538C144.819 251.64 146.522 253.343 148.624 253.343Z" fill="#58C6CD"/>
<path d="M78.611 287.94C80.0104 287.94 81.1447 286.805 81.1447 285.406C81.1447 284.007 80.0104 282.872 78.611 282.872C77.2117 282.872 76.0774 284.007 76.0774 285.406C76.0774 286.805 77.2117 287.94 78.611 287.94Z" fill="#A1A3F6"/>
<path d="M91.1781 218.941H71.8024V240.399H91.1781V218.941Z" fill="#EF8B8B"/>
<path d="M91.1783 225.629H78.4915V235.322H91.1783V225.629Z" fill="#F5DEDE"/>
<path d="M145.74 247.115L151.047 252.422" stroke="#C9EBED" stroke-linecap="round" stroke-linejoin="round"/>
<path d="M116.552 224.505H109.402C107.81 224.505 106.518 225.797 106.518 227.389C106.518 228.982 107.81 230.273 109.402 230.273H116.552C118.145 230.273 119.436 228.982 119.436 227.389C119.436 225.797 118.145 224.505 116.552 224.505Z" fill="#F2D382"/>
<path d="M112.903 224.579V229.96" stroke="#585CE5" stroke-linecap="round" stroke-linejoin="round"/>
<path d="M40.7961 210.898L35.6748 205.909C34.534 204.798 32.7082 204.822 31.5969 205.962C30.4855 207.103 30.5094 208.929 31.6502 210.04L36.7715 215.029C37.9123 216.141 39.7381 216.117 40.8495 214.976C41.9608 213.835 41.9369 212.009 40.7961 210.898Z" fill="#F2D382"/>
<path d="M38.1363 208.41L34.3865 212.261" stroke="#585CE5" stroke-linecap="round" stroke-linejoin="round"/>
<path d="M85.0697 59.7884L89.4461 61.41" stroke="#EEC1C1" stroke-linecap="round" stroke-linejoin="round"/>
<path d="M108.711 61.6402L114.479 60.3688" stroke="#EEC1C1" stroke-linecap="round" stroke-linejoin="round"/>
<path d="M77.9111 58.0193C77.9111 58.0193 75.9118 56.6373 72.3738 56.7847C68.8359 56.9321 69.8401 60.4793 70.1442 62.2483C70.4482 64.0172 72.0237 68.4397 74.9075 68.5502C76.9068 68.6331 78.6758 66.0902 78.6758 66.0902L77.9111 58.0193Z" fill="#F5DEDE"/>
<path d="M73.3781 62.1745L77.994 63.0958" stroke="#EEC1C1" stroke-linecap="round" stroke-linejoin="round"/>
<path d="M120.071 67.4907C120.071 67.4907 121.776 68.928 123.13 68.8451C124.485 68.7622 126.281 68.6977 128.207 64.524C130.28 60.0279 129.184 56.1582 126.77 56.4254C124.678 56.6466 120.947 58.9315 120.947 58.9315L120.081 67.4999L120.071 67.4907Z" fill="#F5DEDE"/>
<path d="M126.474 61.5758L120.301 63.6857" stroke="#EEC1C1" stroke-linecap="round" stroke-linejoin="round"/>
<path opacity="0.52" d="M85.5213 72.8344C88.2029 72.8344 90.3768 70.6605 90.3768 67.9789C90.3768 65.2973 88.2029 63.1235 85.5213 63.1235C82.8397 63.1235 80.6658 65.2973 80.6658 67.9789C80.6658 70.6605 82.8397 72.8344 85.5213 72.8344Z" fill="#EF8B8B"/>
<path opacity="0.52" d="M113.272 73.7006C115.954 73.7006 118.127 71.5267 118.127 68.8452C118.127 66.1636 115.954 63.9897 113.272 63.9897C110.59 63.9897 108.416 66.1636 108.416 68.8452C108.416 71.5267 110.59 73.7006 113.272 73.7006Z" fill="#EF8B8B"/>
<path d="M29.2363 145.381L29.006 153.452" stroke="#EEC1C1" stroke-linecap="round" stroke-linejoin="round"/>
<path d="M174.559 146.302L174.32 153.452" stroke="#EEC1C1" stroke-linecap="round" stroke-linejoin="round"/>
<path d="M92.9471 213.864H70.19V220.092H92.9471V213.864Z" fill="#0F2851"/>
<path opacity="0.2" d="M136.683 157.929H61.0045L59.4935 167.972H138.314L136.683 157.929Z" fill="#585CE5"/>
<path d="M54.2141 168.368H148.596" stroke="#0F2851" stroke-linecap="round" stroke-linejoin="round"/>
<path d="M64.8833 197.215L73.0371 205.71" stroke="#EEC1C1" stroke-linecap="round" stroke-linejoin="round"/>
<path d="M138.82 200.974C138.82 200.974 143.915 195.668 145.583 193.908" stroke="#EEC1C1" stroke-linecap="round" stroke-linejoin="round"/>
<path d="M145.418 179.599L143.427 181.599" stroke="#EEC1C1" stroke-linecap="round" stroke-linejoin="round"/>
<path d="M86.0004 66.9472C90.9616 66.9472 94.9834 62.9253 94.9834 57.9641C94.9834 53.0029 90.9616 48.9811 86.0004 48.9811C81.0392 48.9811 77.0173 53.0029 77.0173 57.9641C77.0173 62.9253 81.0392 66.9472 86.0004 66.9472Z" stroke="white" stroke-width="2" stroke-miterlimit="10"/>
<path d="M112.645 67.7487C117.81 67.7487 121.997 63.5618 121.997 58.3971C121.997 53.2324 117.81 49.0455 112.645 49.0455C107.481 49.0455 103.294 53.2324 103.294 58.3971C103.294 63.5618 107.481 67.7487 112.645 67.7487Z" stroke="white" stroke-width="2" stroke-miterlimit="10"/>
<path d="M103.294 58.3971C103.294 58.3971 102.142 55.1816 99.599 55.1816C97.0561 55.1816 94.983 57.9641 94.983 57.9641" stroke="white" stroke-miterlimit="10"/>
<path d="M76.9899 56.1029L69.6099 51.9477" stroke="white" stroke-linecap="round" stroke-linejoin="round"/>
<path d="M122.089 56.9045L127.516 53.56" stroke="white" stroke-linecap="round" stroke-linejoin="round"/>
<path d="M90.0264 27.3204C90.0264 27.3204 90.0632 24.5287 92.0349 22.4649C96.6969 17.5818 102.584 20.5209 102.345 25.4869C102.16 29.375 98.3461 28.2049 99.2398 23.073C100.318 16.8632 106.629 9.41877 112.783 10.248C117.722 10.9206 118.892 15.8497 118.477 19.4522C118.063 23.0546 116.054 23.718 115.05 21.2948C113.217 16.8632 116.939 9.83337 120.652 6.06509C126.429 0.205371 134.205 2.37973 134.205 2.37973" stroke="#585CE5" stroke-linecap="round" stroke-linejoin="round"/>
<path d="M76.971 83.3839C76.971 83.3839 76.8051 91.0771 82.324 96.6051C87.8428 102.133 94.3751 102.797 101.23 101.626" stroke="#C9EBED" stroke-linecap="round" stroke-linejoin="round"/>
</svg>
