<svg width="24" height="25" viewBox="0 0 24 25" fill="none" xmlns="http://www.w3.org/2000/svg">
<path d="M12 21.5V21.5C12.1381 21.5 12.25 21.6119 12.25 21.75V21.75C12.25 21.8881 12.1381 22 12 22V22C11.8619 22 11.75 21.8881 11.75 21.75V21.75C11.75 21.6119 11.8619 21.5 12 21.5" stroke="#B0B2C4" stroke-width="1.5" stroke-linecap="round" stroke-linejoin="round"/>
<path fill-rule="evenodd" clip-rule="evenodd" d="M5.5 2.75C5.5 1.64543 6.39543 0.75 7.5 0.75H16.5C17.6046 0.75 18.5 1.64543 18.5 2.75V21.75C18.5 22.8546 17.6046 23.75 16.5 23.75H7.5C6.39543 23.75 5.5 22.8546 5.5 21.75V2.75Z" stroke="#B0B2C4" stroke-width="1.5" stroke-linecap="round" stroke-linejoin="round"/>
<path d="M18.5 19.75H5.5" stroke="#B0B2C4" stroke-width="1.5" stroke-linecap="round" stroke-linejoin="round"/>
<path d="M18.5 4.75H5.5" stroke="#B0B2C4" stroke-width="1.5" stroke-linecap="round" stroke-linejoin="round"/>
<path d="M10.5 2.75H13.5" stroke="#B0B2C4" stroke-width="1.5" stroke-linecap="round" stroke-linejoin="round"/>
</svg>
