<svg width="25" height="25" viewBox="0 0 25 25" fill="none" xmlns="http://www.w3.org/2000/svg">
<rect x="0.5" y="0.5" width="24" height="24" fill="black" fill-opacity="0.2"/>
<rect x="0.5" y="0.5" width="24" height="24" fill="black" fill-opacity="0.2"/>
<path d="M5.75 2.74902H2.75C1.92157 2.74902 1.25 3.4206 1.25 4.24902V22.249C1.25 23.0775 1.92157 23.749 2.75 23.749H22.25C23.0784 23.749 23.75 23.0775 23.75 22.249V4.24902C23.75 3.4206 23.0784 2.74902 22.25 2.74902H11.75" stroke="#B0B2C4" stroke-width="1.5" stroke-linecap="round" stroke-linejoin="round"/>
<path fill-rule="evenodd" clip-rule="evenodd" d="M11.75 11.749L8.75 9.50002L5.75 11.75V2.00002C5.74974 1.80094 5.82864 1.60992 5.96932 1.46905C6.11 1.32818 6.30091 1.24902 6.5 1.24902H11C11.4142 1.24902 11.75 1.58481 11.75 1.99902V11.749Z" stroke="#B0B2C4" stroke-width="1.5" stroke-linecap="round" stroke-linejoin="round"/>
<path d="M5.75 19.249H16.25" stroke="#B0B2C4" stroke-width="1.5" stroke-linecap="round" stroke-linejoin="round"/>
<path d="M5.75 14.749H19.25" stroke="#B0B2C4" stroke-width="1.5" stroke-linecap="round" stroke-linejoin="round"/>
<path d="M19.25 10.249H14.75" stroke="#B0B2C4" stroke-width="1.5" stroke-linecap="round" stroke-linejoin="round"/>
<rect x="0.5" y="0.5" width="24" height="24" stroke="black" stroke-miterlimit="0" stroke-linejoin="bevel"/>
</svg>
