<svg width="16" height="20" viewBox="0 0 16 20" fill="none" xmlns="http://www.w3.org/2000/svg">
<mask id="mask0_0_10" style="mask-type:luminance" maskUnits="userSpaceOnUse" x="0" y="12" width="16" height="8">
<path fill-rule="evenodd" clip-rule="evenodd" d="M0 12.5778H15.9434V20H0V12.5778Z" fill="white"/>
</mask>
<g mask="url(#mask0_0_10)">
<path fill-rule="evenodd" clip-rule="evenodd" d="M7.97278 14.0876C3.68392 14.0876 1.5098 14.8244 1.5098 16.2788C1.5098 17.7463 3.68392 18.4902 7.97278 18.4902C12.2606 18.4902 14.4337 17.7534 14.4337 16.2989C14.4337 14.8314 12.2606 14.0876 7.97278 14.0876ZM7.97278 20C6.00097 20 0 20 0 16.2788C0 12.9613 4.55055 12.5778 7.97278 12.5778C9.94458 12.5778 15.9435 12.5778 15.9435 16.2989C15.9435 19.6165 11.394 20 7.97278 20Z" fill="#B0B2C4"/>
</g>
<mask id="mask1_0_10" style="mask-type:luminance" maskUnits="userSpaceOnUse" x="2" y="0" width="12" height="11">
<path fill-rule="evenodd" clip-rule="evenodd" d="M2.62692 0H13.3164V10.688H2.62692V0Z" fill="white"/>
</mask>
<g mask="url(#mask1_0_10)">
<path fill-rule="evenodd" clip-rule="evenodd" d="M7.97268 1.43684C5.81769 1.43684 4.0643 3.18922 4.0643 5.34422C4.05725 7.49217 5.79756 9.24354 7.94349 9.25159L7.97268 9.97026V9.25159C10.1267 9.25159 11.8791 7.49821 11.8791 5.34422C11.8791 3.18922 10.1267 1.43684 7.97268 1.43684ZM7.97267 10.6879H7.94046C4.99936 10.6789 2.61689 8.28029 2.62695 5.3412C2.62695 2.39708 5.02452 -0.000491473 7.97267 -0.000491473C10.9198 -0.000491473 13.3164 2.39708 13.3164 5.34422C13.3164 8.29136 10.9198 10.6879 7.97267 10.6879Z" fill="#B0B2C4"/>
</g>
</svg>
